<svg xmlns="http://www.w3.org/2000/svg" viewBox="0 0 814 1000">
  <path fill="#000" d="M788 741c-14 32-30 61-48 87-25 36-45 61-59 76-24 26-50 52-82 53-21 1-27-7-56-7-30 0-37 8-58 7-32-1-57-27-81-53-14-15-34-40-59-76-19-26-36-55-50-87-22-49-33-97-33-142 0-67 23-116 68-147 29-21 63-33 101-34 20-1 39 5 56 11 13 5 25 10 37 10 11 0 24-5 38-10 17-6 36-12 57-11 38 1 72 13 101 34 45 31 68 80 68 147 0 45-11 93-33 142zM543 125c-20 25-52 45-85 43-4-34 10-69 30-94 20-26 55-44 86-46 4 34-9 68-31 97z"/>
</svg>
