<!-- Official multicolor "G" mark sized to fit a square button -->
<svg xmlns="http://www.w3.org/2000/svg" viewBox="0 0 533.5 544.3">
  <path fill="#EA4335" d="M533.5 278.4c0-18.6-1.7-37.3-5.3-55.4H272v105h147.4c-6.4 34.7-26.4 64.1-56.3 83.7v69.4h90.9c53.2-49 79.5-121.1 79.5-202.7z"/>
  <path fill="#34A853" d="M272 544.3c72.3 0 133.1-23.9 177.5-64.8l-90.9-69.4c-25.2 17-57.4 27.1-86.6 27.1-66.4 0-122.8-44.8-142.9-105.1H35.9v66.1C80.8 487.5 170.5 544.3 272 544.3z"/>
  <path fill="#4A90E2" d="M129.1 332.1c-9.5-28.4-9.5-59.6 0-88.1v-66.1H35.9c-38.6 76.9-38.6 167.2 0 244.1l93.2-66.1z"/>
  <path fill="#FBBC05" d="M272 106.2c35.8-.6 70.4 12.9 96.7 37.6l72.2-72.2C404.9 24.7 340.4 0 272 0 170.5 0 80.8 56.8 35.9 150.9l93.2 66.1C149.3 156.7 205.6 111.9 272 111.9z"/>
</svg>
