<svg xmlns="http://www.w3.org/2000/svg" viewBox="0 0 248 204">
  <path fill="#1DA1F2" d="M248 24.3a102.14 102.14 0 0 1-29.36 8.05 
  51.27 51.27 0 0 0 22.48-28.27 102.4 102.4 0 0 1-32.48 12.4 
  51.2 51.2 0 0 0-87.2 46.64A145.34 145.34 0 0 1 17.4 9.4 
  51.21 51.21 0 0 0 33.16 77a50.92 50.92 0 0 1-23.18-6.4v.64 
  a51.2 51.2 0 0 0 41 50.16 51.27 51.27 0 0 1-23.1.88 
  51.21 51.21 0 0 0 47.8 35.52A102.63 102.63 0 0 1 0 180.6 
  a144.68 144.68 0 0 0 78.38 22.96c94.06 0 145.48-77.92 
  145.48-145.48 0-2.22-.05-4.42-.15-6.6A103.84 103.84 0 0 0 248 24.3z"/>
</svg>

